<svg width="24" height="24" viewBox="0 0 24 24" fill="none" xmlns="http://www.w3.org/2000/svg">
<g clip-path="url(#clip0_927_1964)">
<g clip-path="url(#clip1_927_1964)">
<path d="M3.3999 6.99961C3.3999 6.36309 3.65276 5.75264 4.10285 5.30255C4.55293 4.85247 5.16338 4.59961 5.7999 4.59961H20.1999C20.8364 4.59961 21.4469 4.85247 21.897 5.30255C22.347 5.75264 22.5999 6.36309 22.5999 6.99961V10.7748C22.2382 10.451 21.8346 10.1773 21.3999 9.96121V6.99961C21.3999 6.68135 21.2735 6.37612 21.0484 6.15108C20.8234 5.92604 20.5182 5.79961 20.1999 5.79961H5.7999C5.48164 5.79961 5.17642 5.92604 4.95137 6.15108C4.72633 6.37612 4.5999 6.68135 4.5999 6.99961V16.5996C4.5999 16.9179 4.72633 17.2231 4.95137 17.4481C5.17642 17.6732 5.48164 17.7996 5.7999 17.7996H14.5095C14.6007 17.9352 14.6979 18.0672 14.7999 18.1944V18.9996H5.7999C5.16338 18.9996 4.55293 18.7468 4.10285 18.2967C3.65276 17.8466 3.3999 17.2361 3.3999 16.5996V6.99961ZM23.1999 14.7996C23.1999 15.9444 22.7427 16.9812 21.9999 17.7396V22.5996C21.9999 22.711 21.9689 22.8203 21.9103 22.915C21.8517 23.0098 21.7679 23.0864 21.6682 23.1363C21.5686 23.1861 21.457 23.2072 21.346 23.1972C21.235 23.1872 21.129 23.1465 21.0399 23.0796L19.3599 21.8196C19.256 21.7417 19.1297 21.6996 18.9999 21.6996C18.8701 21.6996 18.7438 21.7417 18.6399 21.8196L16.9599 23.0796C16.8708 23.1465 16.7648 23.1872 16.6538 23.1972C16.5428 23.2072 16.4312 23.1861 16.3316 23.1363C16.2319 23.0864 16.1481 23.0098 16.0895 22.915C16.0309 22.8203 15.9999 22.711 15.9999 22.5996V17.7396C15.5178 17.2476 15.1641 16.6445 14.97 15.9836C14.776 15.3226 14.7474 14.6241 14.887 13.9495C15.0265 13.2749 15.3298 12.645 15.7702 12.1153C16.2105 11.5856 16.7744 11.1723 17.4122 10.9119C18.0499 10.6515 18.7419 10.5519 19.4272 10.622C20.1125 10.6921 20.77 10.9297 21.3418 11.3138C21.9136 11.6979 22.3822 12.2167 22.7062 12.8246C23.0303 13.4325 23.1998 14.1108 23.1999 14.7996ZM18.9999 18.9996C18.3555 18.9996 17.7459 18.8556 17.1999 18.5952V21.0996L18.6915 20.2044C18.7847 20.1486 18.8913 20.1191 18.9999 20.1191C19.1085 20.1191 19.2151 20.1486 19.3083 20.2044L20.7999 21.0996V18.5952C20.2375 18.8623 19.6225 19.0004 18.9999 18.9996ZM18.9999 17.7996C19.7956 17.7996 20.5586 17.4835 21.1212 16.9209C21.6838 16.3583 21.9999 15.5953 21.9999 14.7996C21.9999 14.004 21.6838 13.2409 21.1212 12.6783C20.5586 12.1157 19.7956 11.7996 18.9999 11.7996C18.2043 11.7996 17.4412 12.1157 16.8786 12.6783C16.316 13.2409 15.9999 14.004 15.9999 14.7996C15.9999 15.5953 16.316 16.3583 16.8786 16.9209C17.4412 17.4835 18.2043 17.7996 18.9999 17.7996ZM6.9999 8.79961C6.9999 8.64048 7.06312 8.48787 7.17564 8.37535C7.28816 8.26282 7.44077 8.19961 7.5999 8.19961H18.3999C18.559 8.19961 18.7116 8.26282 18.8242 8.37535C18.9367 8.48787 18.9999 8.64048 18.9999 8.79961C18.9999 8.95874 18.9367 9.11135 18.8242 9.22387C18.7116 9.33639 18.559 9.39961 18.3999 9.39961H7.5999C7.44077 9.39961 7.28816 9.33639 7.17564 9.22387C7.06312 9.11135 6.9999 8.95874 6.9999 8.79961ZM7.5999 14.1996C7.44077 14.1996 7.28816 14.2628 7.17564 14.3753C7.06312 14.4879 6.9999 14.6405 6.9999 14.7996C6.9999 14.9587 7.06312 15.1114 7.17564 15.2239C7.28816 15.3364 7.44077 15.3996 7.5999 15.3996H12.3999C12.559 15.3996 12.7116 15.3364 12.8242 15.2239C12.9367 15.1114 12.9999 14.9587 12.9999 14.7996C12.9999 14.6405 12.9367 14.4879 12.8242 14.3753C12.7116 14.2628 12.559 14.1996 12.3999 14.1996H7.5999Z" fill="#848A96"/>
</g>
</g>
<defs>
<clipPath id="clip0_927_1964">
<rect width="24" height="24" fill="white"/>
</clipPath>
<clipPath id="clip1_927_1964">
<rect width="24" height="24" fill="white"/>
</clipPath>
</defs>
</svg>
